<svg xmlns="http://www.w3.org/2000/svg" id="Capa_1" data-name="Capa 1" viewBox="0 0 304.73 243.75"><defs><style>.cls-1{fill:#0f1115}</style></defs><path d="M137.32.93c-57.9 6.5-106.8 37.2-124.1 78-5.7 13.4-7.2 20.9-7.2 36.9 0 12.4.4 15.9 2.6 24.3a127.74 127.74 0 0 0 15.5 34.2c3.8 5.6 4 6.1 2.7 9-5.6 13.1-24.9 55.1-26.1 57-1.5 2.3-.5 4.3 1.5 3 1.6-.9 79.2-19.5 81.8-19.5 1.3 0 6.8 1.5 12.2 3.4 38.2 13.3 84.8 12.5 124.6-2.1a173.77 173.77 0 0 0 38.6-21c21.2-15.9 35.1-35.6 42.6-60 2.4-8 2.6-10.4 2.7-25.8.1-20-1.3-26.5-9.3-43-19.4-39.8-63.2-67.9-116.1-74.4-9.7-1.3-31-1.2-42 0Zm28.9 16.94c34.1 3 62.3 14.9 83.5 35 14.4 13.7 22.9 27.4 27.8 44.5 3.3 12 3.1 30.6-.6 43-19.8 65.6-109.6 97.7-184.3 65.8-8.1-3.5-8.1-3.5-32.3 4.2-13.3 4.2-24.9 7.5-25.6 7.3-1-.2 1.7-6 8.9-18.8 10.3-18.4 10.3-18.4 4.2-26-13.8-17.1-20.5-35.1-20.5-55.1 0-50.7 48.8-94.2 111.9-99.9 12.64-1.14 14.5-1.14 27 0Z" class="cls-1"/><path d="M102.62 64.87c-10.6 2.2-16.3 7.7-18.9 18.3-1.4 5.4-1.5 7.9-.6 13.8 1 6.3 1.8 8.4 6.8 15.8 7.8 11.5 25.4 29 37.3 37 24.8 16.5 53.5 26.2 73.2 24.8 17.5-1.4 29.4-10.2 31.5-23.5.5-3.4.3-4.2-1.7-5.6-3.2-2.2-20.8-9-29.1-11.2-6.6-1.8-6.6-1.8-14.8 5.9-6 5.7-8.9 7.7-10.8 7.7-3.7 0-23.2-9.6-32.8-16.1-8.5-5.7-19.8-16.4-20.9-19.8-.5-1.7.6-3.5 5.5-8.8 7.3-7.8 7.3-7.9.6-21.8-6.1-12.5-9.7-16.2-16.1-16.9a39.54 39.54 0 0 0-9.2.4Z" class="cls-1"/></svg>